<svg width="73" height="69" viewBox="0 0 73 69" fill="none" xmlns="http://www.w3.org/2000/svg">
<ellipse cx="36.1702" cy="34.2411" rx="36.1702" ry="34.2411" fill="#006400"/>
<g clip-path="url(#clip0_968_254)">
<path d="M40.529 40.4818C43.7281 40.4818 46.3215 37.8945 46.3215 34.7028V26.0343C46.3215 22.8427 43.7281 20.2554 40.529 20.2554H26.0477C22.8486 20.2554 20.2552 22.8427 20.2552 26.0343V44.0937C20.2552 44.4926 20.5794 44.816 20.9793 44.816C21.1706 44.8149 21.3534 44.7368 21.4862 44.5993L24.3824 41.7098C25.2141 40.9019 26.3353 40.4597 27.4959 40.4818H40.529ZM49.2177 26.0343V37.5923C49.2177 40.7839 46.6244 43.3713 43.4252 43.3713H26.0477C26.0477 44.9671 27.3444 46.2608 28.944 46.2608H44.8734C46.0302 46.2579 47.1404 46.7155 47.9579 47.5321L50.8541 50.4216C50.9869 50.5591 51.1696 50.6372 51.361 50.6383C51.7609 50.6383 52.085 50.3149 52.085 49.916V28.9238C52.0851 27.3392 50.806 26.0502 49.2177 26.0343Z" fill="white"/>
</g>
<defs>
<clipPath id="clip0_968_254">
<rect width="34.7234" height="34.7234" fill="white" transform="translate(18.8085 17.3618)"/>
</clipPath>
</defs>
</svg>
